<svg xmlns="http://www.w3.org/2000/svg" viewBox="0 0 640 336" class="figsvg">
  <text x="0" y="24" font-size="23" class="fi"><tspan class="num">15,597</tspan> measurements</text>
  <rect x="0" y="36" width="375" height="44" class="fm"/>
  <rect x="375" y="36" width="265" height="44" class="fa"/>
  <g text-anchor="middle">
    <text x="187" y="112" font-size="26" class="fi num">9,142</text>
    <text x="187" y="142" font-size="22" class="fm">distinct peptides</text>
    <text x="507" y="112" font-size="26" class="fi num">6,455</text>
    <text x="507" y="142" font-size="22" class="fm">repeat readings</text>
  </g>

  <g font-size="23" class="fi" text-anchor="middle">
    <text x="148" y="190">Trained on</text>
    <text x="492" y="190">Held back</text>
  </g>
  <g class="fp">
    <rect x="22" y="204" width="252" height="52" rx="8"/>
    <rect x="366" y="204" width="252" height="52" rx="8"/>
  </g>
  <g class="fi" font-size="24" text-anchor="middle">
    <text x="36" y="238">G</text><text x="64" y="238">I</text><text x="92" y="238">L</text>
    <text x="120" y="238">G</text><text x="148" y="238">F</text><text x="176" y="238">V</text>
    <text x="204" y="238">F</text><text x="232" y="238">T</text><text x="260" y="238">L</text>
    <text x="380" y="238">G</text><text x="408" y="238">I</text><text x="436" y="238">L</text>
    <text x="464" y="238">G</text><text x="492" y="238">F</text><text x="520" y="238">V</text>
    <text x="548" y="238">F</text><text x="576" y="238">T</text><text x="604" y="238">L</text>
  </g>
  <path d="M148 262 C 148 310, 492 310, 492 262" class="fn sa" stroke-width="2.5"/>
  <text x="320" y="330" font-size="22" text-anchor="middle" class="fm">the same peptide, in both</text>
</svg>
