<svg xmlns="http://www.w3.org/2000/svg" viewBox="0 0 640 452" class="figsvg">
  <text x="0" y="24" font-size="23" class="fi">Binders caught</text>
  <text x="451" y="24" font-size="22" class="fm"><tspan class="num">511</tspan> bind</text>
  <line x1="442.9" y1="36" x2="442.9" y2="180" class="sm" stroke-width="1.2" stroke-dasharray="5 5"/>

  <g font-size="22">
    <text x="0" y="58" class="fi">The chemistry tree</text>
    <rect x="0" y="69" width="341.3" height="26" class="fa"/>
    <text x="355" y="90" class="fi num">394</text>

    <text x="0" y="138" class="fi">The position two rule</text>
    <rect x="0" y="149" width="292.9" height="26" class="fm"/>
    <text x="307" y="170" class="fi num">338</text>
  </g>

  <text x="0" y="224" font-size="23" class="fi">False alarms raised</text>
  <g font-size="22">
    <text x="0" y="258" class="fi">The chemistry tree</text>
    <rect x="0" y="269" width="138.7" height="26" class="fa"/>
    <text x="153" y="290" class="fi num">160</text>

    <text x="0" y="338" class="fi">The position two rule</text>
    <rect x="0" y="349" width="143" height="26" class="fm"/>
    <text x="157" y="370" class="fi num">165</text>
  </g>

  <g class="sm" stroke-width="1.2">
    <line x1="0" y1="400" x2="520" y2="400"/>
    <line x1="0" y1="400" x2="0" y2="409"/><line x1="173.3" y1="400" x2="173.3" y2="409"/>
    <line x1="346.7" y1="400" x2="346.7" y2="409"/><line x1="520" y1="400" x2="520" y2="409"/>
  </g>
  <g class="fm num" font-size="22" text-anchor="middle">
    <text x="7" y="437">0</text><text x="173.3" y="437">200</text>
    <text x="346.7" y="437">400</text><text x="520" y="437">600</text>
  </g>
  <text x="640" y="437" font-size="22" text-anchor="end" class="fm">peptides</text>
</svg>
